<svg width="28" height="35" viewBox="0 0 28 35" xmlns="http://www.w3.org/2000/svg"><title>FC4ACBCB-E6E2-4134-8FA3-142A133BB76F</title><g fill="none" fill-rule="evenodd" opacity=".787"><ellipse fill="#FFF" cx="13.417" cy="13.417" rx="12.25" ry="12.25"/><path d="M13.914 0C21.6 0 27.828 6.23 27.828 13.914c0 6.295-4.18 11.612-9.916 13.331L13.435 35l-4.722-8.177C3.605 24.763 0 19.759 0 13.914 0 6.23 6.229 0 13.914 0zm0 4.076a9.838 9.838 0 0 1 9.838 9.838 9.837 9.837 0 0 1-9.838 9.838 9.837 9.837 0 0 1-9.838-9.838 9.838 9.838 0 0 1 9.838-9.838z" fill="#BCBCBC"/></g></svg>