<svg width="27" height="27" viewBox="0 0 27 27" xmlns="http://www.w3.org/2000/svg"><title>76B79893-067E-4B1D-AD2E-DD2DF1B93933</title><g fill="#BCBCBC" fill-rule="evenodd"><path d="M9.255 4.078a.43.43 0 0 1 .609 0l14.094 14.096a.43.43 0 0 1 0 .61l-5.278 5.272a.431.431 0 0 1-.61 0L3.975 9.96a.43.43 0 0 1 0-.61l5.28-5.273zM.207 5.583L5.481.307a.445.445 0 0 1 .61 0l2.785 2.788a.429.429 0 0 1 0 .607L3.602 8.976a.432.432 0 0 1-.61 0L.207 6.191a.429.429 0 0 1 0-.608zM24.4 19.225a.446.446 0 0 1 .61 0l1.585 1.586c.08.08.126.191.126.305v5.274c0 .238-.193.43-.431.43h-5.274a.432.432 0 0 1-.305-.125l-1.586-1.584a.43.43 0 0 1 0-.611l5.275-5.275z"/></g></svg>