<svg xmlns="http://www.w3.org/2000/svg" width="19" height="16" viewBox="0 0 19 16">
    <g fill="#606060" fill-rule="evenodd">
        <path d="M13.697 10.618v2.323a.862.862 0 0 1-.856.863H2.568a.862.862 0 0 1-.856-.863V2.588c0-.473.385-.863.856-.863h9.118L13.174.227A3.366 3.366 0 0 0 11.984 0h-8.56C1.537 0 0 1.548 0 3.451v8.627c0 1.905 1.537 3.451 3.424 3.451h8.56c1.888 0 3.425-1.546 3.425-3.45V8.891l-1.712 1.726z"/>
        <path d="M18.632 2.125a.44.44 0 0 1 .001.62l-9.42 9.492a.434.434 0 0 1-.615 0L3.55 7.15a.445.445 0 0 1 0-.62l1.998-2.014a.434.434 0 0 1 .615 0L8.598 6.97c.17.17.447.17.616 0L16.003.13a.435.435 0 0 1 .617-.001l2.012 1.997z"/>
    </g>
</svg>
