<svg width="26" height="26" viewBox="0 0 26 26" xmlns="http://www.w3.org/2000/svg"><title>4D6DBCD7-5EEA-442A-8180-CB164FB694C2</title><path d="M13 26c7.181 0 13-5.819 13-13S20.181 0 13 0 0 5.819 0 13s5.819 13 13 13zm1.621-13l3.78 3.776c.445.45.445 1.174 0 1.625a1.155 1.155 0 0 1-1.625 0L13 14.62l-3.776 3.78a1.155 1.155 0 0 1-1.625 0 1.155 1.155 0 0 1 0-1.625L11.38 13l-3.78-3.776a1.155 1.155 0 0 1 0-1.625 1.155 1.155 0 0 1 1.625 0L13 11.38l3.776-3.78a1.155 1.155 0 0 1 1.625 0c.445.45.445 1.175 0 1.625L14.62 13z" fill="#BCBCBC" fill-rule="evenodd"/></svg>