<svg xmlns="http://www.w3.org/2000/svg" width="31" height="30" viewBox="0 0 31 30">
    <path fill="#707070" fill-rule="evenodd" d="M4.207 18.444l.773 1.833s-1.798 4.057-1.641 4.214l2.382 2.332c.16.157 4.224-1.693 4.224-1.693l1.875.758S13.474 30 13.703 30h3.362c.231 0 1.765-4.125 1.765-4.125l1.878-.758s4.138 1.763 4.3 1.609l2.383-2.33c.165-.161-1.733-4.14-1.733-4.14l.773-1.835s4.207-1.62 4.207-1.842v-3.295c0-.227-4.212-1.723-4.212-1.723l-.773-1.838s1.801-4.06 1.641-4.217L24.913 3.18c-.168-.162-4.227 1.694-4.227 1.694l-1.873-.758S17.157 0 16.93 0h-3.361c-.235 0-1.766 4.125-1.766 4.125l-1.87.758S5.784 3.12 5.625 3.277L3.249 5.606c-.167.16 1.729 4.137 1.729 4.137l-.773 1.836S0 13.197 0 13.416v3.295c-.008.232 4.207 1.733 4.207 1.733zM15.314 9.71c2.98.002 5.404 2.371 5.404 5.284 0 2.915-2.424 5.29-5.404 5.29-2.977 0-5.404-2.375-5.404-5.29 0-2.913 2.427-5.284 5.404-5.284z"/>
</svg>
