<svg width="34" height="27" viewBox="0 0 34 27" xmlns="http://www.w3.org/2000/svg"><title>F7C41C68-5CAE-4E08-B8B7-A7703580AD38</title><path d="M12.084 0L9.44 4.531H3.399A3.392 3.392 0 0 0 0 7.931v15.104a3.392 3.392 0 0 0 3.399 3.399h26.433a3.392 3.392 0 0 0 3.399-3.399V7.93a3.392 3.392 0 0 0-3.399-3.399H23.79L21.147 0h-9.063zm4.531 6.797c4.788 0 8.686 3.898 8.686 8.686 0 4.787-3.898 8.685-8.686 8.685-4.787 0-8.685-3.898-8.685-8.685 0-4.788 3.898-8.686 8.685-8.686zM28.322 7.93a1.133 1.133 0 1 1-.001 2.267 1.133 1.133 0 0 1 0-2.267zm-11.707.378a7.164 7.164 0 0 0-7.174 7.175 7.164 7.164 0 0 0 7.174 7.174 7.164 7.164 0 0 0 7.175-7.174 7.164 7.164 0 0 0-7.175-7.175zm0 3.02a4.155 4.155 0 1 1-.001 8.31 4.155 4.155 0 0 1 .001-8.31z" fill="#BCBCBC" fill-rule="evenodd"/></svg>