<svg width="30" height="30" viewBox="0 0 30 30" xmlns="http://www.w3.org/2000/svg"><title>B1536867-6405-4611-A96C-1299F24FAB96</title><path d="M28.64 17.816L16.928 6.073c-.48-.48-1.216-.737-1.951-.737l-8.672.383L1.12.536 0 1.656l5.217 5.217-.384 8.64c-.063.736.257 1.471.8 1.951l11.712 11.743c1.057 1.057 2.688 1.057 3.743 0l7.584-7.616c1.025-1.087 1.025-2.718-.032-3.775zm-16.032-4.672a2.262 2.262 0 0 1-3.168 0 2.262 2.262 0 0 1 0-3.168 2.262 2.262 0 0 1 3.168 0c.864.863.864 2.271 0 3.168z" fill="#BCBCBC" fill-rule="evenodd" opacity=".7"/></svg>