<svg xmlns="http://www.w3.org/2000/svg" width="21" height="25" viewBox="0 0 21 25">
    <path fill="#BCBCBC" fill-rule="evenodd" d="M10.986 17.607v2.454a.478.478 0 0 1-.478.478h-.955a.478.478 0 0 1-.478-.478v-2.454a1.902 1.902 0 0 1-.955-1.646 1.91 1.91 0 0 1 3.821 0c0 .706-.386 1.315-.955 1.646zM5.732 5.73c0-1.337.6-1.909 1.91-1.909h4.777c1.31 0 1.91.572 1.91 1.909v4.778H5.733V5.73zm13.697 4.778h-1.278V5.73C18.15 2.785 15.387 0 12.47 0H7.592C4.674 0 1.91 2.785 1.91 5.73v4.778H.632c-.348 0-.632.252-.632.561v13.208c0 .31.284.561.632.561H19.43c.349 0 .632-.25.632-.56V11.068c0-.31-.283-.56-.632-.56z"/>
</svg>
