<svg width="18" height="18" viewBox="0 0 18 18" xmlns="http://www.w3.org/2000/svg"><title>FACA7C0B-EB0F-44D9-A444-A7A39FB2E2A8</title><g fill="none" fill-rule="evenodd"><circle fill="#FFF" cx="9" cy="9" r="9"/><path d="M9 17c4.42 0 8-3.58 8-8s-3.58-8-8-8-8 3.58-8 8 3.58 8 8 8zm.998-8l2.326 2.323a.71.71 0 0 1 0 1 .71.71 0 0 1-1 0L9 9.999l-2.323 2.326a.71.71 0 0 1-1 0 .71.71 0 0 1 0-1L8.001 9 5.676 6.677a.71.71 0 0 1 0-1 .71.71 0 0 1 1 0L9 8.001l2.323-2.326a.71.71 0 0 1 1 0 .71.71 0 0 1 0 1L9.999 9z" fill="#4A4A4A"/></g></svg>