<svg xmlns="http://www.w3.org/2000/svg" width="25" height="25" viewBox="0 0 25 25">
    <g fill="none" fill-rule="evenodd">
        <ellipse cx="12.306" cy="12.29" fill="#FFF" rx="12.306" ry="12.29"/>
        <path fill="#01436A" d="M12.306 23.215c6.043 0 10.939-4.89 10.939-10.925 0-6.034-4.896-10.924-10.939-10.924-6.042 0-10.939 4.89-10.939 10.924 0 6.035 4.897 10.925 10.94 10.925zM13.67 12.29l3.18 3.173a.97.97 0 0 1 0 1.366.973.973 0 0 1-1.367 0l-3.177-3.176-3.177 3.176a.973.973 0 0 1-1.367 0 .97.97 0 0 1 0-1.366l3.18-3.173-3.18-3.173a.97.97 0 0 1 0-1.365.973.973 0 0 1 1.367 0l3.177 3.176 3.177-3.176a.973.973 0 0 1 1.368 0 .97.97 0 0 1 0 1.365l-3.18 3.173z"/>
    </g>
</svg>
