<?xml version="1.0" encoding="UTF-8"?>
<svg width="17px" height="17px" viewBox="0 0 17 17" version="1.1" xmlns="http://www.w3.org/2000/svg" xmlns:xlink="http://www.w3.org/1999/xlink">
    <!-- Generator: sketchtool 41.2 (35397) - http://www.bohemiancoding.com/sketch -->
    <title>2118A306-5727-4FC2-A6AE-CB7FD2DF2E1B</title>
    <desc>Created with sketchtool.</desc>
    <defs></defs>
    <g id="Wireframes-desktop-2" stroke="none" stroke-width="1" fill="none" fill-rule="evenodd">
        <g id="Sak-m/vedlegg" transform="translate(-312.000000, -551.000000)" fill="#3C3C3C">
            <g id="Meny-vedlegg" transform="translate(297.000000, 520.000000)">
                <path d="M23.5000122,31.7418029 C19.2154275,31.7418029 15.7426189,35.2146115 15.7426189,39.4991962 C15.7426189,43.7837809 19.2154275,47.2581729 23.5000122,47.2581729 C27.7845969,47.2581729 31.2589888,43.7837809 31.2589888,39.4991962 C31.2589888,35.2146115 27.7845969,31.7418029 23.5000122,31.7418029 Z M23.5000122,45.2913536 C20.3023872,45.2913536 17.7093589,42.6983254 17.7093589,39.4991962 C17.7093589,36.3015713 20.3023872,33.708543 23.5000122,33.708543 C26.6991413,33.708543 29.2921696,36.3015713 29.2921696,39.4991962 C29.2921696,42.6983254 26.6991413,45.2913536 23.5000122,45.2913536 Z M23.5000122,42.5081668 C25.1621977,42.5081668 26.5089827,41.1613817 26.5089827,39.4991962 C26.5089827,37.8385149 25.1621977,36.491809 23.5000122,36.491809 C21.8393308,36.491809 20.4926249,37.8385149 20.4926249,39.4991962 C20.4926249,41.1613817 21.8393308,42.5081668 23.5000122,42.5081668 Z" id="Valgt-radiobutton"></path>
            </g>
        </g>
    </g>
</svg>